<svg xmlns="http://www.w3.org/2000/svg" xmlns:xlink="http://www.w3.org/1999/xlink" width="100.0" height="100.0" viewBox="-97.93216508 30.136264920000002 0.08883216000000971 0.08543215999999632" preserveAspectRatio="xMinYMin meet"><g transform="matrix(1,0,0,-1,0,60.357962)"><g><path fill-rule="evenodd" fill="#66cc99" stroke="#555555" stroke-width="0.0017766432000001942" opacity="0.6" d="M -97.890016,30.209412 L -97.889286,30.208708 L -97.888672,30.207904 L -97.88822,30.207299 L -97.88752,30.206345 L -97.886872,30.205469 L -97.886517,30.205022 L -97.886029,30.204487 L -97.88542,30.203912 L -97.884924,30.203498 L -97.884474,30.203157 L -97.884007,30.202848 L -97.883473,30.202527 L -97.88299,30.202254 L -97.882506,30.202013 L -97.881903,30.201707 L -97.881386,30.201494 L -97.880723,30.201256 L -97.879919,30.200993 L -97.879385,30.200851 L -97.878781,30.200713 L -97.878058,30.200553 L -97.877606,30.200478 L -97.876957,30.200411 L -97.876312,30.200365 L -97.87568,30.200342 L -97.875091,30.200326 L -97.874472,30.200349 L -97.873762,30.200394 L -97.873041,30.200473 L -97.872354,30.200575 L -97.871806,30.200691 L -97.871298,30.200814 L -97.870575,30.200965 L -97.870402,30.201 L -97.870068,30.201057 L -97.869675,30.20111 L -97.869287,30.201144 L -97.868994,30.201157 L -97.868727,30.201166 L -97.868366,30.201156 L -97.868055,30.201134 L -97.867844,30.20111 L -97.867544,30.201072 L -97.867155,30.201023 L -97.866875,30.200973 L -97.866577,30.200929 L -97.866333,30.200875 L -97.866088,30.200807 L -97.866602,30.199898 L -97.867284,30.198864 L -97.867964,30.197958 L -97.868428,30.197266 L -97.868908,30.196565 L -97.869282,30.195937 L -97.869009,30.195902 L -97.868832,30.195923 L -97.86855,30.195975 L -97.868227,30.195911 L -97.867898,30.195905 L -97.867706,30.195901 L -97.867346,30.195771 L -97.867099,30.195659 L -97.866788,30.195537 L -97.866613,30.195473 L -97.866451,30.195401 L -97.866196,30.195243 L -97.865956,30.195081 L -97.865837,30.194988 L -97.865654,30.194822 L -97.865524,30.194594 L -97.865608,30.194343 L -97.865652,30.194014 L -97.865685,30.1938 L -97.865711,30.193605 L -97.865742,30.193372 L -97.865886,30.193157 L -97.866022,30.192871 L -97.866112,30.192683 L -97.866189,30.192528 L -97.86621,30.192377 L -97.866237,30.192014 L -97.866251,30.19185 L -97.866221,30.191599 L -97.866149,30.19135 L -97.866085,30.191063 L -97.866053,30.190927 L -97.865965,30.190799 L -97.865865,30.190693 L -97.865701,30.190549 L -97.865453,30.190399 L -97.865147,30.190332 L -97.864861,30.190258 L -97.864665,30.19032 L -97.864517,30.190394 L -97.864363,30.190466 L -97.864199,30.190542 L -97.864012,30.19058 L -97.863697,30.19061 L -97.863444,30.190613 L -97.863139,30.19061 L -97.862826,30.190571 L -97.862655,30.190499 L -97.862454,30.19033 L -97.862366,30.190031 L -97.862223,30.189825 L -97.862035,30.189634 L -97.861893,30.189466 L -97.861698,30.189221 L -97.861591,30.189089 L -97.861496,30.188978 L -97.861359,30.188829 L -97.861271,30.188704 L -97.861029,30.188594 L -97.86081,30.188373 L -97.860778,30.188235 L -97.860801,30.188098 L -97.86087,30.187865 L -97.86095,30.187732 L -97.860999,30.187576 L -97.86107,30.187327 L -97.86114,30.187199 L -97.861251,30.186965 L -97.861393,30.186756 L -97.861525,30.186591 L -97.861721,30.186361 L -97.861971,30.186113 L -97.86208,30.185988 L -97.862236,30.185846 L -97.862456,30.185663 L -97.862596,30.185588 L -97.862961,30.185458 L -97.862911,30.185223 L -97.862906,30.184987 L -97.86306,30.184858 L -97.86319,30.184775 L -97.86337,30.184531 L -97.863473,30.184395 L -97.863558,30.184268 L -97.863696,30.184017 L -97.863845,30.183737 L -97.863895,30.183606 L -97.863909,30.183323 L -97.863883,30.183185 L -97.863782,30.182875 L -97.863716,30.182722 L -97.863663,30.182564 L -97.863606,30.182404 L -97.863514,30.182138 L -97.863435,30.18201 L -97.863375,30.181877 L -97.863287,30.181738 L -97.86303,30.181403 L -97.862894,30.181219 L -97.862654,30.18098 L -97.862489,30.180837 L -97.862238,30.180637 L -97.862089,30.180513 L -97.861908,30.180319 L -97.861675,30.180177 L -97.861497,30.180168 L -97.861266,30.180032 L -97.861089,30.179822 L -97.860937,30.179745 L -97.860744,30.179535 L -97.860417,30.179254 L -97.860197,30.179096 L -97.860005,30.178949 L -97.859845,30.178822 L -97.859558,30.178687 L -97.859285,30.178377 L -97.859182,30.178234 L -97.859029,30.178036 L -97.858768,30.177833 L -97.858652,30.177737 L -97.858543,30.177611 L -97.858407,30.177392 L -97.858368,30.177256 L -97.858406,30.176993 L -97.85854,30.176814 L -97.858622,30.176681 L -97.858829,30.176412 L -97.859027,30.176226 L -97.859215,30.175969 L -97.859295,30.175789 L -97.859107,30.17565 L -97.858928,30.175562 L -97.858653,30.175512 L -97.858475,30.17552 L -97.858263,30.175576 L -97.857782,30.175727 L -97.85762,30.175756 L -97.857362,30.17576 L -97.85711,30.175722 L -97.856872,30.175695 L -97.855472,30.175506 L -97.855021,30.175437 L -97.856017,30.173795 L -97.856437,30.17319 L -97.857012,30.172395 L -97.857373,30.17175 L -97.857637,30.171378 L -97.858056,30.170828 L -97.858617,30.170564 L -97.859351,30.170006 L -97.859809,30.169105 L -97.860154,30.168459 L -97.860345,30.167421 L -97.860269,30.166338 L -97.860206,30.165245 L -97.860191,30.164126 L -97.860159,30.16302 L -97.860076,30.161558 L -97.86002,30.159684 L -97.859977,30.158841 L -97.85995,30.158302 L -97.859897,30.157283 L -97.859889,30.157126 L -97.85985,30.156947 L -97.859793,30.156734 L -97.859708,30.156542 L -97.859585,30.156347 L -97.85947,30.156194 L -97.858885,30.155429 L -97.858189,30.154593 L -97.857841,30.154185 L -97.857577,30.153858 L -97.85689,30.15267 L -97.856039,30.150861 L -97.854901,30.148468 L -97.85206,30.149351 L -97.850264,30.14939 L -97.848351,30.149433 L -97.847103,30.149461 L -97.846939,30.144661 L -97.846889,30.142958 L -97.846933,30.142631 L -97.847165,30.1423 L -97.8475,30.142021 L -97.846623,30.140984 L -97.8473,30.140507 L -97.847774,30.140629 L -97.84808,30.140685 L -97.84824,30.14071 L -97.848537,30.140715 L -97.848864,30.14073 L -97.849041,30.140731 L -97.849215,30.140701 L -97.849446,30.140568 L -97.849551,30.140463 L -97.849639,30.140231 L -97.849638,30.140082 L -97.84964,30.139923 L -97.849742,30.139688 L -97.850017,30.139559 L -97.850373,30.139555 L -97.850597,30.139567 L -97.85078,30.139601 L -97.850962,30.139657 L -97.851207,30.139722 L -97.851376,30.13975 L -97.851697,30.139781 L -97.851892,30.139832 L -97.852351,30.13994 L -97.852595,30.139994 L -97.852751,30.140041 L -97.852962,30.140108 L -97.853154,30.140181 L -97.853419,30.140282 L -97.853681,30.140449 L -97.853813,30.140523 L -97.854066,30.140619 L -97.854212,30.140691 L -97.854357,30.140771 L -97.854563,30.140882 L -97.854819,30.140988 L -97.855041,30.141114 L -97.855343,30.141386 L -97.855608,30.141427 L -97.855878,30.141452 L -97.856054,30.141472 L -97.85633,30.141444 L -97.856638,30.141403 L -97.857039,30.141312 L -97.857232,30.141236 L -97.857519,30.141236 L -97.857698,30.141278 L -97.857984,30.141369 L -97.858121,30.141437 L -97.858316,30.14154 L -97.858526,30.141654 L -97.858777,30.141849 L -97.858943,30.141981 L -97.859132,30.142139 L -97.859482,30.142421 L -97.859635,30.142539 L -97.859862,30.142698 L -97.860155,30.142728 L -97.860334,30.14277 L -97.860502,30.14287 L -97.860673,30.142972 L -97.86083,30.143071 L -97.860976,30.143181 L -97.861114,30.143316 L -97.861237,30.143439 L -97.861419,30.143622 L -97.861612,30.14387 L -97.861735,30.144148 L -97.861715,30.14429 L -97.861694,30.144438 L -97.861651,30.14458 L -97.861544,30.144845 L -97.861314,30.145127 L -97.861172,30.145325 L -97.861058,30.145529 L -97.861018,30.145754 L -97.861237,30.145915 L -97.861388,30.145959 L -97.861721,30.146075 L -97.861945,30.146258 L -97.862046,30.146516 L -97.862051,30.1467 L -97.861942,30.14694 L -97.861818,30.147191 L -97.8618,30.147438 L -97.861892,30.147668 L -97.862167,30.147673 L -97.862419,30.14759 L -97.862723,30.147541 L -97.863036,30.147476 L -97.863253,30.147461 L -97.863416,30.14748 L -97.863783,30.147575 L -97.86403,30.14777 L -97.864114,30.147901 L -97.864219,30.148148 L -97.864466,30.148306 L -97.864633,30.148348 L -97.864826,30.148437 L -97.865051,30.14845 L -97.865296,30.148559 L -97.865512,30.148712 L -97.865657,30.148822 L -97.865797,30.148921 L -97.865941,30.148984 L -97.86612,30.149031 L -97.866459,30.149145 L -97.866686,30.14924 L -97.866859,30.149312 L -97.867159,30.149423 L -97.867308,30.149475 L -97.867587,30.149607 L -97.867748,30.149734 L -97.868015,30.149827 L -97.868324,30.149937 L -97.868574,30.150044 L -97.868708,30.150143 L -97.86883,30.150236 L -97.868981,30.150291 L -97.869189,30.150358 L -97.869417,30.150409 L -97.869744,30.150476 L -97.870042,30.150554 L -97.870201,30.150636 L -97.870358,30.150741 L -97.870538,30.150879 L -97.870674,30.150956 L -97.870989,30.151083 L -97.87119,30.151161 L -97.871321,30.151238 L -97.871587,30.151417 L -97.871726,30.151496 L -97.872031,30.151656 L -97.872218,30.151723 L -97.872509,30.151839 L -97.872672,30.151899 L -97.872847,30.151974 L -97.873063,30.152058 L -97.873225,30.152111 L -97.873375,30.152166 L -97.873655,30.152229 L -97.873986,30.152277 L -97.874172,30.152278 L -97.874408,30.152282 L -97.874614,30.152286 L -97.874779,30.152289 L -97.874975,30.152279 L -97.87542,30.152233 L -97.875582,30.152206 L -97.875809,30.152174 L -97.875993,30.152159 L -97.876219,30.152133 L -97.876405,30.152111 L -97.876609,30.152107 L -97.876782,30.152091 L -97.876957,30.152086 L -97.87717,30.152057 L -97.877356,30.152022 L -97.877698,30.152001 L -97.87786,30.151999 L -97.878201,30.152017 L -97.878361,30.152017 L -97.878692,30.152045 L -97.878863,30.152051 L -97.879037,30.152046 L -97.879199,30.152055 L -97.879564,30.152098 L -97.879728,30.152153 L -97.879867,30.152241 L -97.879979,30.152348 L -97.880221,30.152592 L -97.880403,30.152774 L -97.880523,30.15287 L -97.880822,30.153126 L -97.880932,30.153224 L -97.881083,30.15337 L -97.881199,30.153493 L -97.881359,30.153683 L -97.881508,30.153821 L -97.881612,30.153955 L -97.881754,30.154161 L -97.881925,30.154387 L -97.882084,30.154597 L -97.882202,30.154747 L -97.882328,30.154997 L -97.882404,30.155131 L -97.882509,30.155303 L -97.882693,30.155607 L -97.882828,30.155793 L -97.882954,30.155986 L -97.883066,30.156125 L -97.883195,30.156312 L -97.883311,30.156468 L -97.883441,30.156608 L -97.883729,30.156916 L -97.883877,30.157057 L -97.884046,30.157195 L -97.884218,30.15733 L -97.8844,30.157465 L -97.88456,30.157578 L -97.88482,30.157776 L -97.884926,30.157885 L -97.885142,30.15806 L -97.885312,30.158203 L -97.885529,30.158395 L -97.885665,30.158502 L -97.885861,30.158668 L -97.886047,30.1588 L -97.886227,30.15893 L -97.886462,30.159078 L -97.886592,30.159168 L -97.88675,30.159268 L -97.886954,30.159379 L -97.887113,30.159462 L -97.887401,30.159657 L -97.887579,30.159726 L -97.887877,30.159784 L -97.888075,30.159807 L -97.888406,30.159844 L -97.888704,30.159778 L -97.888853,30.159712 L -97.889022,30.159652 L -97.889185,30.159595 L -97.889268,30.159357 L -97.889352,30.159213 L -97.889512,30.158867 L -97.889645,30.158536 L -97.889714,30.158376 L -97.889814,30.158097 L -97.889857,30.157845 L -97.890058,30.157673 L -97.890266,30.157498 L -97.890546,30.157349 L -97.890723,30.157289 L -97.890962,30.157225 L -97.891138,30.157193 L -97.891299,30.15716 L -97.89164,30.157158 L -97.891813,30.157219 L -97.891968,30.157415 L -97.892275,30.157555 L -97.892526,30.157684 L -97.892789,30.157829 L -97.893105,30.157978 L -97.893432,30.158108 L -97.893658,30.158184 L -97.893829,30.158253 L -97.894182,30.158408 L -97.89434,30.158486 L -97.894483,30.158582 L -97.894619,30.158659 L -97.894774,30.158728 L -97.894947,30.158792 L -97.895189,30.15889 L -97.895352,30.158931 L -97.895525,30.158981 L -97.895725,30.159043 L -97.895866,30.159112 L -97.895993,30.159194 L -97.896104,30.159306 L -97.896196,30.159418 L -97.896369,30.159611 L -97.896454,30.159725 L -97.89657,30.159851 L -97.896715,30.160016 L -97.896845,30.160159 L -97.897006,30.160423 L -97.89705,30.160559 L -97.897124,30.16081 L -97.897188,30.160957 L -97.897255,30.161096 L -97.897329,30.161254 L -97.897384,30.161404 L -97.897419,30.161638 L -97.89742,30.1619 L -97.897358,30.162251 L -97.897366,30.162399 L -97.897361,30.162561 L -97.89734,30.162707 L -97.897354,30.162867 L -97.897384,30.163071 L -97.897406,30.1635 L -97.897408,30.163673 L -97.897404,30.163836 L -97.897395,30.164033 L -97.897355,30.164283 L -97.897342,30.164434 L -97.89734,30.164574 L -97.897335,30.164728 L -97.897343,30.164882 L -97.89736,30.165094 L -97.897393,30.165232 L -97.897434,30.165384 L -97.897507,30.165537 L -97.897608,30.165737 L -97.897696,30.165854 L -97.897805,30.165986 L -97.898043,30.166147 L -97.898325,30.166216 L -97.898488,30.166246 L -97.898648,30.16626 L -97.898908,30.166268 L -97.899216,30.166252 L -97.899565,30.166179 L -97.899756,30.166089 L -97.89994,30.166001 L -97.900165,30.165901 L -97.900336,30.165827 L -97.900496,30.165773 L -97.900673,30.16571 L -97.900884,30.165634 L -97.901097,30.165553 L -97.901344,30.165445 L -97.901614,30.165329 L -97.901769,30.165274 L -97.901984,30.165171 L -97.902195,30.165068 L -97.902426,30.164949 L -97.902714,30.1648 L -97.902872,30.164729 L -97.903085,30.164615 L -97.903281,30.164497 L -97.903441,30.16441 L -97.903696,30.164271 L -97.904099,30.164597 L -97.90447,30.164861 L -97.905115,30.165319 L -97.914185,30.171765 L -97.928737,30.182103 L -97.928796,30.184418 L -97.928875,30.185706 L -97.928856,30.186201 L -97.928703,30.186927 L -97.92845,30.18748 L -97.926524,30.190673 L -97.926398,30.19086 L -97.926026,30.191379 L -97.925205,30.1924 L -97.924184,30.19364 L -97.921081,30.198359 L -97.919906,30.200053 L -97.919217,30.201132 L -97.91829,30.202283 L -97.917557,30.203177 L -97.916477,30.203657 L -97.915149,30.203949 L -97.912762,30.20447 L -97.911998,30.204794 L -97.911549,30.205124 L -97.910879,30.206189 L -97.91012,30.207214 L -97.909184,30.208753 L -97.908738,30.209254 L -97.908196,30.209598 L -97.907455,30.209895 L -97.90626,30.209858 L -97.903924,30.209347 L -97.903365,30.209303 L -97.901412,30.209313 L -97.900887,30.209393 L -97.899768,30.209826 L -97.89922,30.210245 L -97.898881,30.210629 L -97.897447,30.212901 L -97.896843,30.213857 L -97.896498,30.214403 L -97.894689,30.217317 L -97.894372,30.218158 L -97.894279,30.218407 L -97.894164,30.218174 L -97.893986,30.217967 L -97.893791,30.217693 L -97.893593,30.217343 L -97.893457,30.217038 L -97.893334,30.216667 L -97.893259,30.216382 L -97.893233,30.216187 L -97.893205,30.215746 L -97.893211,30.215185 L -97.893228,30.214539 L -97.893233,30.214 L -97.893171,30.213413 L -97.893103,30.213151 L -97.892959,30.212705 L -97.892751,30.212275 L -97.892556,30.211966 L -97.89219,30.211511 L -97.891883,30.211202 L -97.891244,30.210585 L -97.8904,30.209777 L -97.890016,30.209412 z" /></g></g></svg>